<svg xmlns="http://www.w3.org/2000/svg" xmlns:xlink="http://www.w3.org/1999/xlink" width="1366" zoomAndPan="magnify" viewBox="0 0 1024.5 576" height="768" preserveAspectRatio="xMidYMid meet" version="1.0"><defs><clipPath id="9461e53cf6"><path d="M 43.941406 189.203125 L 203.691406 189.203125 L 203.691406 424.460938 L 43.941406 424.460938 Z M 43.941406 189.203125 " clip-rule="nonzero"/></clipPath><clipPath id="c3019738b3"><path d="M 198.625 424.34375 L 43.941406 424.34375 L 43.941406 189.550781 L 78.675781 189.203125 L 78.675781 382.550781 C 78.675781 392.261719 79.636719 398.851562 81.574219 402.320312 C 83.742188 406.25 89.105469 408.625 97.671875 409.433594 L 203.691406 409.433594 Z M 198.625 424.34375 " clip-rule="nonzero"/></clipPath><clipPath id="131783a0ff"><path d="M 0.941406 0.203125 L 160.691406 0.203125 L 160.691406 235.460938 L 0.941406 235.460938 Z M 0.941406 0.203125 " clip-rule="nonzero"/></clipPath><clipPath id="f3db55f485"><path d="M 155.625 235.34375 L 0.941406 235.34375 L 0.941406 0.550781 L 35.675781 0.203125 L 35.675781 193.550781 C 35.675781 203.261719 36.636719 209.851562 38.574219 213.320312 C 40.742188 217.25 46.105469 219.625 54.671875 220.433594 L 160.691406 220.433594 Z M 155.625 235.34375 " clip-rule="nonzero"/></clipPath><clipPath id="6acb9b80b8"><rect x="0" width="161" y="0" height="236"/></clipPath><clipPath id="650f7eed53"><path d="M 240.78125 183.828125 L 481.976562 183.828125 L 481.976562 429.71875 L 240.78125 429.71875 Z M 240.78125 183.828125 " clip-rule="nonzero"/></clipPath><clipPath id="ccbe797f1d"><path d="M 359.820312 196.488281 C 337.867188 196.488281 320.257812 204.285156 306.992188 219.902344 C 290.464844 239.328125 282.207031 267.765625 282.207031 305.222656 C 282.207031 343.71875 290.773438 373.253906 307.894531 393.835938 C 320.921875 409.554688 338.289062 417.414062 359.992188 417.414062 C 388.578125 417.414062 409.679688 405.738281 423.308594 382.382812 C 434.167969 363.890625 439.59375 339.789062 439.59375 310.070312 C 439.59375 278.511719 434.464844 253.191406 424.210938 234.117188 C 410.824219 209.035156 389.355469 196.488281 359.808594 196.488281 M 363.257812 183.828125 C 397.152344 183.828125 425.488281 196.089844 448.289062 220.589844 C 470.117188 244.175781 481.039062 272.433594 481.039062 305.386719 C 481.039062 339.605469 469.933594 368.621094 447.75 392.433594 C 424.710938 417.289062 395.578125 429.714844 360.363281 429.714844 C 324.542969 429.714844 295.410156 417.515625 272.976562 393.128906 C 251.515625 369.777344 240.78125 340.703125 240.78125 305.90625 C 240.78125 268.5625 254.042969 238.109375 280.578125 214.519531 C 303.617188 194.0625 331.175781 183.828125 363.257812 183.828125 " clip-rule="nonzero"/></clipPath><clipPath id="5894118be1"><path d="M 0.78125 0.828125 L 241.207031 0.828125 L 241.207031 246.71875 L 0.78125 246.71875 Z M 0.78125 0.828125 " clip-rule="nonzero"/></clipPath><clipPath id="c3a6a296b4"><path d="M 119.820312 13.488281 C 97.867188 13.488281 80.257812 21.285156 66.992188 36.902344 C 50.464844 56.328125 42.207031 84.765625 42.207031 122.222656 C 42.207031 160.71875 50.773438 190.253906 67.894531 210.835938 C 80.921875 226.554688 98.289062 234.414062 119.992188 234.414062 C 148.578125 234.414062 169.679688 222.738281 183.308594 199.382812 C 194.167969 180.890625 199.59375 156.789062 199.59375 127.070312 C 199.59375 95.511719 194.464844 70.191406 184.210938 51.117188 C 170.824219 26.035156 149.355469 13.488281 119.808594 13.488281 M 123.257812 0.828125 C 157.152344 0.828125 185.488281 13.089844 208.289062 37.589844 C 230.117188 61.175781 241.039062 89.433594 241.039062 122.386719 C 241.039062 156.605469 229.933594 185.621094 207.75 209.433594 C 184.710938 234.289062 155.578125 246.714844 120.363281 246.714844 C 84.542969 246.714844 55.410156 234.515625 32.976562 210.128906 C 11.515625 186.777344 0.78125 157.703125 0.78125 122.90625 C 0.78125 85.5625 14.042969 55.109375 40.578125 31.519531 C 63.617188 11.0625 91.175781 0.828125 123.257812 0.828125 " clip-rule="nonzero"/></clipPath><clipPath id="6ebde98130"><rect x="0" width="242" y="0" height="247"/></clipPath><clipPath id="07dd3a035c"><path d="M 537.847656 189.203125 L 697.59375 189.203125 L 697.59375 424.460938 L 537.847656 424.460938 Z M 537.847656 189.203125 " clip-rule="nonzero"/></clipPath><clipPath id="49a323c2e4"><path d="M 692.527344 424.34375 L 537.847656 424.34375 L 537.847656 189.550781 L 572.578125 189.203125 L 572.578125 382.550781 C 572.578125 392.261719 573.542969 398.851562 575.476562 402.320312 C 577.644531 406.25 583.007812 408.625 591.574219 409.433594 L 697.59375 409.433594 Z M 692.527344 424.34375 " clip-rule="nonzero"/></clipPath><clipPath id="03828a50e9"><path d="M 0.847656 0.203125 L 160.59375 0.203125 L 160.59375 235.460938 L 0.847656 235.460938 Z M 0.847656 0.203125 " clip-rule="nonzero"/></clipPath><clipPath id="faa6c10c1a"><path d="M 155.527344 235.34375 L 0.847656 235.34375 L 0.847656 0.550781 L 35.578125 0.203125 L 35.578125 193.550781 C 35.578125 203.261719 36.542969 209.851562 38.476562 213.320312 C 40.644531 217.25 46.007812 219.625 54.574219 220.433594 L 160.59375 220.433594 Z M 155.527344 235.34375 " clip-rule="nonzero"/></clipPath><clipPath id="38b006964a"><rect x="0" width="161" y="0" height="236"/></clipPath><clipPath id="2770674417"><path d="M 809.800781 146.058594 L 891 146.058594 L 891 175.410156 L 809.800781 175.410156 Z M 809.800781 146.058594 " clip-rule="nonzero"/></clipPath><clipPath id="f619b47a6a"><path d="M 850.179688 146.332031 C 862.390625 146.332031 874.589844 146.402344 886.796875 146.28125 C 889.703125 146.25 890.53125 147.210938 890.480469 149.792969 C 890.347656 157.222656 890.441406 164.652344 890.410156 172.082031 C 890.398438 175.253906 890.144531 175.355469 886.796875 174.453125 C 862.359375 167.882812 837.921875 167.667969 813.511719 174.585938 C 810.308594 175.5 809.953125 175.285156 809.941406 172.089844 C 809.921875 164.660156 810.054688 157.230469 809.878906 149.8125 C 809.820312 146.957031 810.964844 146.261719 813.851562 146.292969 C 825.957031 146.414062 838.0625 146.34375 850.171875 146.34375 " clip-rule="nonzero"/></clipPath><clipPath id="9d27e831c6"><path d="M 0.800781 0.230469 L 81.683594 0.230469 L 81.683594 29.410156 L 0.800781 29.410156 Z M 0.800781 0.230469 " clip-rule="nonzero"/></clipPath><clipPath id="686e3f0054"><path d="M 41.179688 0.332031 C 53.390625 0.332031 65.589844 0.402344 77.796875 0.28125 C 80.703125 0.25 81.53125 1.210938 81.480469 3.792969 C 81.347656 11.222656 81.441406 18.652344 81.410156 26.082031 C 81.398438 29.253906 81.144531 29.355469 77.796875 28.453125 C 53.359375 21.882812 28.921875 21.667969 4.511719 28.585938 C 1.308594 29.5 0.953125 29.285156 0.941406 26.089844 C 0.921875 18.660156 1.054688 11.230469 0.878906 3.8125 C 0.820312 0.957031 1.964844 0.261719 4.851562 0.292969 C 16.957031 0.414062 29.0625 0.34375 41.171875 0.34375 " clip-rule="nonzero"/></clipPath><clipPath id="b2262a2c9c"><rect x="0" width="82" y="0" height="30"/></clipPath><clipPath id="42d1f7a374"><path d="M 734.457031 183.238281 L 975 183.238281 L 975 429.816406 L 734.457031 429.816406 Z M 734.457031 183.238281 " clip-rule="nonzero"/></clipPath><clipPath id="c30a759b4b"><path d="M 853.722656 196.488281 C 831.769531 196.488281 814.15625 204.285156 800.894531 219.902344 C 784.367188 239.316406 776.109375 267.753906 776.109375 305.210938 C 776.109375 343.710938 784.675781 373.246094 801.796875 393.824219 C 814.824219 409.542969 832.191406 417.402344 853.894531 417.402344 C 882.476562 417.402344 903.582031 405.726562 917.222656 382.375 C 928.078125 363.882812 933.503906 339.78125 933.503906 310.0625 C 933.503906 278.5 928.375 253.183594 918.121094 234.105469 C 904.738281 209.023438 883.265625 196.476562 853.710938 196.476562 M 857.148438 183.820312 C 891.042969 183.820312 919.382812 196.078125 942.183594 220.578125 C 964.011719 244.167969 974.929688 272.421875 974.929688 305.375 C 974.929688 339.597656 963.828125 368.609375 941.640625 392.421875 C 918.601562 417.28125 889.46875 429.703125 854.253906 429.703125 C 818.4375 429.703125 789.300781 417.507812 766.867188 393.117188 C 745.417969 369.777344 734.683594 340.703125 734.683594 305.90625 C 734.683594 268.574219 747.945312 238.109375 774.480469 214.519531 C 797.519531 194.0625 825.078125 183.828125 857.160156 183.828125 " clip-rule="nonzero"/></clipPath><clipPath id="439807a85b"><path d="M 0.523438 0.652344 L 241 0.652344 L 241 246.769531 L 0.523438 246.769531 Z M 0.523438 0.652344 " clip-rule="nonzero"/></clipPath><clipPath id="bf9e4f7fd8"><path d="M 119.722656 13.488281 C 97.769531 13.488281 80.15625 21.285156 66.894531 36.902344 C 50.367188 56.316406 42.109375 84.753906 42.109375 122.210938 C 42.109375 160.710938 50.675781 190.246094 67.796875 210.824219 C 80.824219 226.542969 98.191406 234.402344 119.894531 234.402344 C 148.476562 234.402344 169.582031 222.726562 183.222656 199.375 C 194.078125 180.882812 199.503906 156.78125 199.503906 127.0625 C 199.503906 95.5 194.375 70.183594 184.121094 51.105469 C 170.738281 26.023438 149.265625 13.476562 119.710938 13.476562 M 123.148438 0.820312 C 157.042969 0.820312 185.382812 13.078125 208.183594 37.578125 C 230.011719 61.167969 240.929688 89.421875 240.929688 122.375 C 240.929688 156.597656 229.828125 185.609375 207.640625 209.421875 C 184.601562 234.28125 155.46875 246.703125 120.253906 246.703125 C 84.4375 246.703125 55.300781 234.507812 32.867188 210.117188 C 11.417969 186.777344 0.683594 157.703125 0.683594 122.90625 C 0.683594 85.574219 13.945312 55.109375 40.480469 31.519531 C 63.519531 11.0625 91.078125 0.828125 123.160156 0.828125 " clip-rule="nonzero"/></clipPath><clipPath id="4595359538"><rect x="0" width="241" y="0" height="247"/></clipPath></defs><g clip-path="url(#9461e53cf6)"><g clip-path="url(#c3019738b3)"><g transform="matrix(1, 0, 0, 1, 43, 189)"><g clip-path="url(#6acb9b80b8)"><g clip-path="url(#131783a0ff)"><g clip-path="url(#f3db55f485)"><path fill="#6f557f" d="M 0.941406 0.203125 L 160.691406 0.203125 L 160.691406 235.460938 L 0.941406 235.460938 Z M 0.941406 0.203125 " fill-opacity="1" fill-rule="nonzero"/></g></g></g></g></g></g><g clip-path="url(#650f7eed53)"><g clip-path="url(#ccbe797f1d)"><g transform="matrix(1, 0, 0, 1, 240, 183)"><g clip-path="url(#6ebde98130)"><g clip-path="url(#5894118be1)"><g clip-path="url(#c3a6a296b4)"><path fill="#6f557f" d="M 0.78125 0.828125 L 241.039062 0.828125 L 241.039062 246.71875 L 0.78125 246.71875 Z M 0.78125 0.828125 " fill-opacity="1" fill-rule="nonzero"/></g></g></g></g></g></g><g clip-path="url(#07dd3a035c)"><g clip-path="url(#49a323c2e4)"><g transform="matrix(1, 0, 0, 1, 537, 189)"><g clip-path="url(#38b006964a)"><g clip-path="url(#03828a50e9)"><g clip-path="url(#faa6c10c1a)"><path fill="#6f557f" d="M 0.847656 0.203125 L 160.59375 0.203125 L 160.59375 235.460938 L 0.847656 235.460938 Z M 0.847656 0.203125 " fill-opacity="1" fill-rule="nonzero"/></g></g></g></g></g></g><g clip-path="url(#2770674417)"><g clip-path="url(#f619b47a6a)"><g transform="matrix(1, 0, 0, 1, 809, 146)"><g clip-path="url(#b2262a2c9c)"><g clip-path="url(#9d27e831c6)"><g clip-path="url(#686e3f0054)"><rect x="-1034.39" width="1475.28" fill="#6f557f" height="829.44" y="-272.72" fill-opacity="1"/></g></g></g></g></g></g><g clip-path="url(#42d1f7a374)"><g clip-path="url(#c30a759b4b)"><g transform="matrix(1, 0, 0, 1, 734, 183)"><g clip-path="url(#4595359538)"><g clip-path="url(#439807a85b)"><g clip-path="url(#bf9e4f7fd8)"><rect x="-959.39" width="1475.28" fill="#6f557f" height="829.44" y="-309.72" fill-opacity="1"/></g></g></g></g></g></g></svg>